<svg width="57" height="57" viewBox="0 0 57 57" fill="none" xmlns="http://www.w3.org/2000/svg">
<circle cx="28.5" cy="28.5" r="28.5" fill="#6C6C6C"/>
<path d="M10.646 31.712H13.936V33H9.05V23.27H10.646V31.712ZM19.7087 33.098C18.8034 33.098 17.968 32.888 17.2027 32.468C16.4467 32.0387 15.8447 31.446 15.3967 30.69C14.958 29.9247 14.7387 29.066 14.7387 28.114C14.7387 27.162 14.958 26.308 15.3967 25.552C15.8447 24.796 16.4467 24.208 17.2027 23.788C17.968 23.3587 18.8034 23.144 19.7087 23.144C20.6234 23.144 21.4587 23.3587 22.2147 23.788C22.98 24.208 23.582 24.796 24.0207 25.552C24.4594 26.308 24.6787 27.162 24.6787 28.114C24.6787 29.066 24.4594 29.9247 24.0207 30.69C23.582 31.446 22.98 32.0387 22.2147 32.468C21.4587 32.888 20.6234 33.098 19.7087 33.098ZM19.7087 31.712C20.3527 31.712 20.9267 31.5673 21.4307 31.278C21.9347 30.9793 22.3267 30.5593 22.6067 30.018C22.896 29.4673 23.0407 28.8327 23.0407 28.114C23.0407 27.3953 22.896 26.7653 22.6067 26.224C22.3267 25.6827 21.9347 25.2673 21.4307 24.978C20.9267 24.6887 20.3527 24.544 19.7087 24.544C19.0647 24.544 18.4907 24.6887 17.9867 24.978C17.4827 25.2673 17.086 25.6827 16.7967 26.224C16.5167 26.7653 16.3767 27.3953 16.3767 28.114C16.3767 28.8327 16.5167 29.4673 16.7967 30.018C17.086 30.5593 17.4827 30.9793 17.9867 31.278C18.4907 31.5673 19.0647 31.712 19.7087 31.712ZM33.2912 26.07C33.0392 25.5847 32.6892 25.2207 32.2412 24.978C31.7932 24.726 31.2752 24.6 30.6872 24.6C30.0432 24.6 29.4692 24.7447 28.9652 25.034C28.4612 25.3233 28.0646 25.734 27.7752 26.266C27.4952 26.798 27.3552 27.414 27.3552 28.114C27.3552 28.814 27.4952 29.4347 27.7752 29.976C28.0646 30.508 28.4612 30.9187 28.9652 31.208C29.4692 31.4973 30.0432 31.642 30.6872 31.642C31.5552 31.642 32.2599 31.3993 32.8012 30.914C33.3426 30.4287 33.6739 29.7707 33.7952 28.94H30.1412V27.666H35.5032V28.912C35.4006 29.668 35.1299 30.3633 34.6912 30.998C34.2619 31.6327 33.6972 32.1413 32.9972 32.524C32.3066 32.8973 31.5366 33.084 30.6872 33.084C29.7726 33.084 28.9372 32.874 28.1812 32.454C27.4252 32.0247 26.8232 31.432 26.3752 30.676C25.9366 29.92 25.7172 29.066 25.7172 28.114C25.7172 27.162 25.9366 26.308 26.3752 25.552C26.8232 24.796 27.4252 24.208 28.1812 23.788C28.9466 23.3587 29.7819 23.144 30.6872 23.144C31.7232 23.144 32.6426 23.4007 33.4452 23.914C34.2572 24.418 34.8452 25.1367 35.2092 26.07H33.2912ZM41.5153 33.098C40.61 33.098 39.7747 32.888 39.0093 32.468C38.2533 32.0387 37.6513 31.446 37.2033 30.69C36.7647 29.9247 36.5453 29.066 36.5453 28.114C36.5453 27.162 36.7647 26.308 37.2033 25.552C37.6513 24.796 38.2533 24.208 39.0093 23.788C39.7747 23.3587 40.61 23.144 41.5153 23.144C42.43 23.144 43.2653 23.3587 44.0213 23.788C44.7867 24.208 45.3887 24.796 45.8273 25.552C46.266 26.308 46.4853 27.162 46.4853 28.114C46.4853 29.066 46.266 29.9247 45.8273 30.69C45.3887 31.446 44.7867 32.0387 44.0213 32.468C43.2653 32.888 42.43 33.098 41.5153 33.098ZM41.5153 31.712C42.1593 31.712 42.7333 31.5673 43.2373 31.278C43.7413 30.9793 44.1333 30.5593 44.4133 30.018C44.7027 29.4673 44.8473 28.8327 44.8473 28.114C44.8473 27.3953 44.7027 26.7653 44.4133 26.224C44.1333 25.6827 43.7413 25.2673 43.2373 24.978C42.7333 24.6887 42.1593 24.544 41.5153 24.544C40.8713 24.544 40.2973 24.6887 39.7933 24.978C39.2893 25.2673 38.8927 25.6827 38.6033 26.224C38.3233 26.7653 38.1833 27.3953 38.1833 28.114C38.1833 28.8327 38.3233 29.4673 38.6033 30.018C38.8927 30.5593 39.2893 30.9793 39.7933 31.278C40.2973 31.5673 40.8713 31.712 41.5153 31.712Z" fill="white"/>
</svg>
