<svg width="41" height="41" viewBox="0 0 41 41" fill="none" xmlns="http://www.w3.org/2000/svg">
<path d="M32.4583 5.125H8.54167C6.65469 5.125 5.125 6.65469 5.125 8.54167V32.4583C5.125 34.3453 6.65469 35.875 8.54167 35.875H32.4583C34.3453 35.875 35.875 34.3453 35.875 32.4583V8.54167C35.875 6.65469 34.3453 5.125 32.4583 5.125Z" stroke="#A3A3A3" stroke-width="3.41667" stroke-linecap="round" stroke-linejoin="round"/>
<path d="M14.5205 17.0835C15.9357 17.0835 17.083 15.9362 17.083 14.521C17.083 13.1058 15.9357 11.9585 14.5205 11.9585C13.1053 11.9585 11.958 13.1058 11.958 14.521C11.958 15.9362 13.1053 17.0835 14.5205 17.0835Z" stroke="#A3A3A3" stroke-width="3.41667" stroke-linecap="round" stroke-linejoin="round"/>
<path d="M35.8753 25.6252L27.3337 17.0835L8.54199 35.8752" stroke="#A3A3A3" stroke-width="3.41667" stroke-linecap="round" stroke-linejoin="round"/>
</svg>
