<svg width="36" height="36" viewBox="0 0 36 36" fill="none" xmlns="http://www.w3.org/2000/svg">
<path fill-rule="evenodd" clip-rule="evenodd" d="M18.5781 7.56611C19.5809 6.56335 20.9409 6 22.3591 6C23.7772 6 25.1372 6.56335 26.14 7.56611C27.1427 8.56887 27.7061 9.92891 27.7061 11.347C27.7061 12.7652 27.1427 14.1252 26.14 15.128L16.8913 24.3766C16.6057 24.6623 16.2667 24.8889 15.8936 25.0435C15.5205 25.1982 15.1205 25.2778 14.7166 25.2779C13.9009 25.278 13.1186 24.9541 12.5417 24.3774C11.9648 23.8007 11.6406 23.0185 11.6404 22.2028C11.6403 21.3871 11.9642 20.6047 12.5409 20.0278L21.5132 11.0538L22.6506 12.1913L13.6767 21.1636C13.5403 21.3 13.4321 21.4619 13.3583 21.6401C13.2845 21.8183 13.2465 22.0093 13.2465 22.2022C13.2465 22.3951 13.2845 22.5861 13.3583 22.7643C13.4321 22.9425 13.5403 23.1044 13.6767 23.2408C13.8131 23.3772 13.975 23.4854 14.1532 23.5592C14.3314 23.633 14.5224 23.671 14.7153 23.671C14.9082 23.671 15.0992 23.633 15.2774 23.5592C15.4556 23.4854 15.6175 23.3772 15.7539 23.2408L25.0026 13.9922C25.3499 13.6448 25.6255 13.2324 25.8135 12.7786C26.0015 12.3247 26.0982 11.8383 26.0982 11.347C26.0982 10.8558 26.0015 10.3694 25.8135 9.9155C25.6255 9.46165 25.3499 9.04927 25.0026 8.70191C24.6552 8.35455 24.2428 8.07901 23.789 7.89102C23.3351 7.70303 22.8487 7.60627 22.3574 7.60627C21.8662 7.60627 21.3798 7.70303 20.9259 7.89102C20.4721 8.07901 20.0597 8.35455 19.7123 8.70191L10.1889 18.2269C9.08417 19.3592 8.47012 20.8813 8.47986 22.4632C8.4896 24.0451 9.12235 25.5595 10.241 26.6781C11.3596 27.7968 12.874 28.4295 14.4559 28.4392C16.0378 28.449 17.5599 27.8349 18.6922 26.7302L27.9409 17.4799L29.0783 18.6173L19.828 27.866C18.3904 29.2518 16.4663 30.018 14.4696 29.9997C12.4729 29.9813 10.5631 29.1799 9.15127 27.7678C7.73942 26.3558 6.93829 24.4459 6.92023 22.4492C6.90218 20.4525 7.66865 18.5285 9.05473 17.0911L18.5781 7.5645V7.56611Z" fill="black"/>
</svg>
